<mxfile host="65bd71144e">
    <diagram id="aiH7TpTWmKNrRUCy2Aa0" name="Page-1">
        <mxGraphModel dx="650" dy="478" grid="1" gridSize="10" guides="1" tooltips="1" connect="1" arrows="1" fold="1" page="1" pageScale="1" pageWidth="827" pageHeight="1169" math="0" shadow="0">
            <root>
                <mxCell id="0"/>
                <mxCell id="1" parent="0"/>
                <mxCell id="2" value="have" style="ellipse;whiteSpace=wrap;html=1;" vertex="1" parent="1">
                    <mxGeometry y="160" width="60" height="30" as="geometry"/>
                </mxCell>
                <mxCell id="3" value="GYM" style="swimlane;" vertex="1" parent="1">
                    <mxGeometry x="90" y="40" width="90" height="110" as="geometry"/>
                </mxCell>
                <mxCell id="4" value="Adresse&lt;br&gt;Name&lt;br&gt;Num_tel" style="text;html=1;align=center;verticalAlign=middle;resizable=0;points=[];autosize=1;strokeColor=none;fillColor=none;" vertex="1" parent="3">
                    <mxGeometry x="20" y="40" width="60" height="50" as="geometry"/>
                </mxCell>
                <mxCell id="8" value="" style="endArrow=none;html=1;exitX=0.6;exitY=0.025;exitDx=0;exitDy=0;exitPerimeter=0;" edge="1" parent="1" source="2">
                    <mxGeometry width="50" height="50" relative="1" as="geometry">
                        <mxPoint x="50" y="150" as="sourcePoint"/>
                        <mxPoint x="90" y="70" as="targetPoint"/>
                    </mxGeometry>
                </mxCell>
                <mxCell id="9" value="Membre" style="swimlane;" vertex="1" parent="1">
                    <mxGeometry x="330" y="30" width="110" height="120" as="geometry"/>
                </mxCell>
                <mxCell id="10" value="Id_membre&lt;br&gt;Full_name&lt;br&gt;Last_name&lt;br&gt;Adresse&lt;br&gt;DNA&lt;br&gt;gender" style="text;html=1;align=center;verticalAlign=middle;resizable=0;points=[];autosize=1;strokeColor=none;fillColor=none;" vertex="1" parent="9">
                    <mxGeometry x="15" y="30" width="80" height="90" as="geometry"/>
                </mxCell>
                <mxCell id="11" value="register" style="ellipse;whiteSpace=wrap;html=1;" vertex="1" parent="1">
                    <mxGeometry x="210" y="10" width="70" height="20" as="geometry"/>
                </mxCell>
                <mxCell id="15" value="Attend&#10;" style="swimlane;" vertex="1" parent="1">
                    <mxGeometry x="240" y="270" width="90" height="80" as="geometry"/>
                </mxCell>
                <mxCell id="17" value="Session" style="swimlane;" vertex="1" parent="1">
                    <mxGeometry x="540" y="250" width="80" height="90" as="geometry"/>
                </mxCell>
                <mxCell id="19" value="id_session&lt;br&gt;Type&lt;br&gt;scheduel" style="text;html=1;align=center;verticalAlign=middle;resizable=0;points=[];autosize=1;strokeColor=none;fillColor=none;" vertex="1" parent="1">
                    <mxGeometry x="545" y="275" width="70" height="50" as="geometry"/>
                </mxCell>
                <mxCell id="24" value="Coach" style="swimlane;" vertex="1" parent="1">
                    <mxGeometry x="20" y="260" width="110" height="80" as="geometry"/>
                </mxCell>
                <mxCell id="25" value="id_coach&lt;br&gt;Full_name_c&lt;br&gt;Last_name_c&lt;br&gt;AGE" style="text;html=1;align=center;verticalAlign=middle;resizable=0;points=[];autosize=1;strokeColor=none;fillColor=none;" vertex="1" parent="1">
                    <mxGeometry x="35" y="280" width="90" height="60" as="geometry"/>
                </mxCell>
                <mxCell id="26" value="" style="endArrow=none;html=1;entryX=0.733;entryY=1.1;entryDx=0;entryDy=0;entryPerimeter=0;" edge="1" parent="1" target="2">
                    <mxGeometry width="50" height="50" relative="1" as="geometry">
                        <mxPoint x="50" y="250" as="sourcePoint"/>
                        <mxPoint x="360" y="120" as="targetPoint"/>
                    </mxGeometry>
                </mxCell>
                <mxCell id="27" value="" style="endArrow=none;html=1;entryX=1;entryY=0.5;entryDx=0;entryDy=0;" edge="1" parent="1" target="24">
                    <mxGeometry width="50" height="50" relative="1" as="geometry">
                        <mxPoint x="240" y="320" as="sourcePoint"/>
                        <mxPoint x="360" y="120" as="targetPoint"/>
                    </mxGeometry>
                </mxCell>
                <mxCell id="28" value="" style="endArrow=none;html=1;entryX=-0.029;entryY=0.32;entryDx=0;entryDy=0;entryPerimeter=0;exitX=1;exitY=0.5;exitDx=0;exitDy=0;" edge="1" parent="1" source="15" target="19">
                    <mxGeometry width="50" height="50" relative="1" as="geometry">
                        <mxPoint x="310" y="170" as="sourcePoint"/>
                        <mxPoint x="360" y="120" as="targetPoint"/>
                    </mxGeometry>
                </mxCell>
                <mxCell id="29" value="" style="endArrow=none;html=1;entryX=0.125;entryY=1.033;entryDx=0;entryDy=0;entryPerimeter=0;exitX=0.622;exitY=-0.025;exitDx=0;exitDy=0;exitPerimeter=0;" edge="1" parent="1" source="15" target="10">
                    <mxGeometry width="50" height="50" relative="1" as="geometry">
                        <mxPoint x="310" y="170" as="sourcePoint"/>
                        <mxPoint x="360" y="120" as="targetPoint"/>
                    </mxGeometry>
                </mxCell>
                <mxCell id="30" value="" style="endArrow=none;html=1;entryX=0;entryY=0.5;entryDx=0;entryDy=0;exitX=0.5;exitY=0;exitDx=0;exitDy=0;" edge="1" parent="1" source="3" target="11">
                    <mxGeometry width="50" height="50" relative="1" as="geometry">
                        <mxPoint x="310" y="170" as="sourcePoint"/>
                        <mxPoint x="360" y="120" as="targetPoint"/>
                    </mxGeometry>
                </mxCell>
                <mxCell id="31" value="" style="endArrow=none;html=1;entryX=1;entryY=0.5;entryDx=0;entryDy=0;exitX=0.5;exitY=0;exitDx=0;exitDy=0;" edge="1" parent="1" source="9" target="11">
                    <mxGeometry width="50" height="50" relative="1" as="geometry">
                        <mxPoint x="310" y="170" as="sourcePoint"/>
                        <mxPoint x="360" y="120" as="targetPoint"/>
                    </mxGeometry>
                </mxCell>
            </root>
        </mxGraphModel>
    </diagram>
</mxfile>